<svg width="651" height="444" viewBox="0 0 651 444" fill="none" xmlns="http://www.w3.org/2000/svg">
<g clip-path="url(#clip0)">
<path d="M534.346 265.824C534.777 265.693 535.217 265.598 535.662 265.537L553.439 228.747L548.011 220.46L559.22 210.483L573.31 228.044L544.613 270.583C545.319 272.191 545.528 273.981 545.211 275.713C544.894 277.446 544.067 279.039 542.839 280.281C541.612 281.522 540.042 282.354 538.339 282.666C536.636 282.977 534.881 282.752 533.306 282.023C531.731 281.293 530.412 280.092 529.524 278.58C528.635 277.068 528.22 275.316 528.333 273.557C528.446 271.799 529.082 270.117 530.156 268.736C531.23 267.354 532.691 266.339 534.346 265.824V265.824Z" fill="#A0616A"/>
<path d="M564.692 215.566C564.45 215.826 564.172 216.049 563.867 216.228L545.679 226.967C545.242 227.226 544.757 227.389 544.255 227.446C543.752 227.503 543.244 227.454 542.762 227.301C542.279 227.148 541.833 226.895 541.451 226.558C541.07 226.22 540.761 225.806 540.545 225.34L531.699 206.305C531.323 205.504 531.242 204.592 531.471 203.735C531.7 202.878 532.224 202.134 532.947 201.637L544.222 193.825C544.926 193.338 545.775 193.116 546.622 193.198C547.47 193.28 548.262 193.661 548.864 194.275L564.623 210.383C565.293 211.068 565.675 211.992 565.688 212.96C565.701 213.927 565.344 214.862 564.692 215.566H564.692Z" fill="#CCCCCC"/>
<path d="M590.23 426.38L580.627 429.041L565.979 392.581L580.152 388.653L590.23 426.38Z" fill="#A0616A"/>
<path d="M573.021 428.147L591.541 423.015L594.714 434.892L564.533 443.256C564.116 441.696 564.005 440.068 564.207 438.465C564.408 436.861 564.917 435.314 565.705 433.911C566.493 432.508 567.545 431.277 568.8 430.288C570.056 429.299 571.49 428.572 573.021 428.147Z" fill="#2F2E41"/>
<path d="M508.135 433.843L498.184 433.843L493.449 394.744L508.137 394.745L508.135 433.843Z" fill="#A0616A"/>
<path d="M491.075 430.947H510.268V443.255H478.99C478.99 441.639 479.303 440.038 479.91 438.545C480.517 437.052 481.407 435.695 482.53 434.552C483.652 433.409 484.984 432.502 486.45 431.884C487.916 431.265 489.488 430.947 491.075 430.947Z" fill="#2F2E41"/>
<path d="M518.621 180.846C529.632 180.846 538.559 171.754 538.559 160.539C538.559 149.323 529.632 140.231 518.621 140.231C507.61 140.231 498.683 149.323 498.683 160.539C498.683 171.754 507.61 180.846 518.621 180.846Z" fill="#A0616A"/>
<path d="M507.526 405.966H493.926C492.996 405.965 492.102 405.603 491.425 404.955C490.747 404.306 490.337 403.42 490.277 402.475C486.224 336.858 488.595 289.789 497.737 254.348C497.777 254.193 497.826 254.041 497.885 253.892L498.613 252.037C498.882 251.345 499.35 250.752 499.955 250.335C500.56 249.918 501.274 249.696 502.005 249.698H529.972C530.499 249.698 531.02 249.814 531.499 250.038C531.977 250.262 532.403 250.59 532.746 250.997L536.544 255.512C536.618 255.6 536.688 255.689 536.754 255.784C553.884 280.114 569.234 327.679 587.013 391.612C587.275 392.541 587.171 393.538 586.723 394.39C586.274 395.242 585.516 395.882 584.611 396.173L569.996 400.937C569.156 401.206 568.25 401.159 567.442 400.806C566.634 400.452 565.977 399.814 565.592 399.009L527.664 318.884C527.399 318.324 526.963 317.866 526.423 317.578C525.882 317.29 525.264 317.186 524.661 317.283C524.058 317.38 523.502 317.672 523.075 318.117C522.648 318.561 522.372 319.133 522.29 319.749L511.146 402.75C511.023 403.64 510.59 404.455 509.925 405.046C509.26 405.637 508.409 405.963 507.526 405.966Z" fill="#2F2E41"/>
<path d="M535.011 255.842C534.973 255.842 534.935 255.841 534.896 255.84L500.925 254.748C500.052 254.723 499.216 254.379 498.571 253.779C497.926 253.179 497.514 252.362 497.411 251.479C493.105 215.974 504.915 206.462 510.193 204.022C510.634 203.819 511.016 203.504 511.302 203.106C511.589 202.709 511.769 202.243 511.826 201.753L512.283 198.032C512.361 197.375 512.61 196.751 513.005 196.225C521.28 185.307 532.579 181.811 538.578 180.699C539.064 180.61 539.564 180.622 540.045 180.736C540.527 180.849 540.981 181.061 541.379 181.359C541.778 181.657 542.113 182.034 542.364 182.467C542.616 182.901 542.778 183.382 542.841 183.882L543.525 189.225C543.594 189.735 543.794 190.217 544.104 190.624C561.361 213.603 542.136 247.531 538.106 254.099C537.777 254.632 537.32 255.072 536.779 255.377C536.238 255.681 535.63 255.842 535.011 255.842Z" fill="#CCCCCC"/>
<path d="M558.847 162.825C554.399 156.446 549.066 150.759 543.013 145.941C537.981 141.938 532.381 138.518 526.202 136.882C520.022 135.246 513.198 135.525 507.561 138.576C501.923 141.628 496.094 147.692 496.058 154.195C496.047 156.284 496.569 159.11 498.589 158.748L499.173 158.827C504.046 157.825 508.918 156.823 513.791 155.82C515.866 163.156 517.941 170.491 520.016 177.827C520.454 179.373 521.041 181.101 522.481 181.761C523.839 182.382 525.407 181.797 526.78 181.213C527.006 181.117 528.947 176.68 528.947 176.68C528.995 176.542 529.079 176.419 529.19 176.324C529.301 176.23 529.434 176.167 529.577 176.143C529.72 176.119 529.866 176.134 530.001 176.186C530.136 176.239 530.255 176.327 530.345 176.442L531.498 177.909C531.718 178.19 532.022 178.389 532.363 178.478C532.705 178.567 533.065 178.541 533.391 178.402C541.337 175.024 549.283 171.645 557.229 168.267C558.327 167.8 559.554 167.19 559.873 166.022C560.178 164.903 559.506 163.772 558.847 162.825Z" fill="#2F2E41"/>
<path d="M650.188 444H405.846C405.631 444 405.424 443.913 405.272 443.758C405.12 443.603 405.034 443.392 405.034 443.173C405.034 442.954 405.12 442.743 405.272 442.588C405.424 442.433 405.631 442.346 405.846 442.346H650.188C650.404 442.346 650.61 442.433 650.762 442.588C650.914 442.743 651 442.954 651 443.173C651 443.392 650.914 443.603 650.762 443.758C650.61 443.913 650.404 444 650.188 444Z" fill="#3F3D56"/>
<path d="M517.721 315.153C517.169 315.15 516.632 314.969 516.188 314.635L512.493 311.901C512.186 311.673 511.816 311.55 511.437 311.55C511.057 311.55 510.687 311.673 510.381 311.901L506.685 314.635C506.24 314.965 505.703 315.143 505.152 315.143C504.601 315.143 504.065 314.965 503.619 314.636C503.173 314.306 502.842 313.841 502.671 313.307C502.501 312.774 502.501 312.199 502.671 311.665L504.083 307.241C504.201 306.873 504.201 306.477 504.084 306.109C503.966 305.742 503.737 305.421 503.43 305.195L499.735 302.46C499.289 302.13 498.957 301.665 498.787 301.132C498.617 300.598 498.617 300.023 498.787 299.49C498.957 298.956 499.289 298.491 499.735 298.161C500.181 297.831 500.717 297.654 501.268 297.654H505.835C506.215 297.655 506.585 297.532 506.892 297.305C507.199 297.078 507.428 296.757 507.544 296.389L508.956 291.965C509.126 291.431 509.458 290.966 509.903 290.636C510.349 290.307 510.886 290.129 511.437 290.129C511.987 290.129 512.524 290.307 512.97 290.636C513.416 290.966 513.747 291.431 513.917 291.965L515.329 296.389C515.446 296.757 515.674 297.078 515.981 297.305C516.288 297.532 516.658 297.655 517.038 297.654H521.605C522.156 297.654 522.693 297.831 523.138 298.161C523.584 298.491 523.916 298.956 524.086 299.49C524.256 300.023 524.256 300.598 524.086 301.132C523.916 301.665 523.584 302.13 523.138 302.46L519.443 305.194C519.136 305.421 518.907 305.742 518.79 306.109C518.672 306.477 518.673 306.873 518.791 307.241L520.202 311.665C520.378 312.198 520.382 312.775 520.211 313.31C520.04 313.845 519.705 314.31 519.254 314.635C518.81 314.969 518.273 315.15 517.721 315.153Z" fill="white"/>
<path d="M531.842 306.307C532.886 305.561 533.757 304.592 534.393 303.466C535.029 302.341 535.415 301.087 535.524 299.793C535.633 298.5 535.462 297.197 535.023 295.978C534.584 294.759 533.888 293.653 532.984 292.737L539.294 215.123L520.507 217.755L520.149 293.164C518.74 294.813 517.973 296.931 517.994 299.117C518.015 301.304 518.823 303.406 520.265 305.026C521.706 306.646 523.681 307.671 525.814 307.907C527.948 308.143 530.093 307.574 531.842 306.307Z" fill="#A0616A"/>
<path d="M540.522 226.299C540.17 226.299 539.82 226.247 539.483 226.145L519.313 220.103C518.828 219.958 518.378 219.712 517.992 219.381C517.605 219.049 517.29 218.64 517.067 218.178C516.844 217.716 516.717 217.212 516.695 216.698C516.672 216.184 516.755 215.671 516.937 215.191L524.401 195.551C524.713 194.721 525.307 194.033 526.074 193.613C526.842 193.192 527.733 193.066 528.584 193.259L541.909 196.209C542.741 196.394 543.483 196.868 544.008 197.551C544.533 198.233 544.808 199.081 544.785 199.948L544.165 222.679C544.138 223.646 543.743 224.565 543.063 225.24C542.383 225.916 541.472 226.295 540.522 226.299H540.522Z" fill="#CCCCCC"/>
<path d="M350.684 323.285H5.68238C4.17584 323.283 2.73148 322.673 1.6662 321.588C0.60091 320.503 0.00169093 319.032 0 317.497V212.492C0.00169093 210.957 0.60091 209.486 1.6662 208.401C2.73148 207.316 4.17584 206.706 5.68238 206.704H350.684C352.191 206.706 353.635 207.316 354.7 208.401C355.766 209.486 356.365 210.957 356.366 212.492V317.497C356.365 319.032 355.766 320.503 354.7 321.588C353.635 322.673 352.191 323.283 350.684 323.285ZM5.68238 208.358C4.60629 208.359 3.57464 208.795 2.81373 209.57C2.05282 210.345 1.62478 211.396 1.62354 212.492V317.497C1.62478 318.593 2.05282 319.644 2.81373 320.419C3.57464 321.194 4.60629 321.63 5.68238 321.631H350.684C351.76 321.63 352.792 321.194 353.553 320.419C354.314 319.644 354.742 318.593 354.743 317.497V212.492C354.742 211.396 354.314 210.345 353.553 209.57C352.792 208.795 351.76 208.359 350.684 208.358H5.68238Z" fill="white"/>
<path d="M156.651 367.499C155.975 367.496 155.317 367.274 154.773 366.865L150.246 363.516C149.87 363.236 149.417 363.086 148.952 363.086C148.487 363.086 148.034 363.236 147.659 363.516L143.132 366.865C142.586 367.269 141.928 367.487 141.254 367.487C140.579 367.487 139.921 367.27 139.375 366.866C138.829 366.462 138.423 365.892 138.214 365.238C138.006 364.585 138.006 363.881 138.214 363.227L139.943 357.807C140.088 357.357 140.088 356.871 139.945 356.421C139.801 355.97 139.52 355.578 139.144 355.3L134.617 351.95C134.071 351.546 133.665 350.976 133.456 350.323C133.248 349.669 133.248 348.965 133.456 348.311C133.665 347.657 134.071 347.088 134.617 346.684C135.163 346.28 135.82 346.062 136.495 346.062H142.091C142.556 346.063 143.009 345.913 143.385 345.635C143.761 345.357 144.041 344.964 144.184 344.513L145.913 339.093C146.121 338.439 146.528 337.87 147.074 337.465C147.62 337.061 148.277 336.844 148.952 336.844C149.627 336.844 150.285 337.061 150.831 337.465C151.377 337.87 151.783 338.439 151.992 339.093L153.72 344.513C153.863 344.964 154.143 345.357 154.519 345.635C154.895 345.913 155.349 346.063 155.814 346.062H161.409C162.084 346.062 162.742 346.28 163.287 346.684C163.833 347.088 164.24 347.657 164.448 348.311C164.657 348.965 164.657 349.669 164.448 350.323C164.24 350.976 163.833 351.546 163.287 351.95L158.761 355.3C158.384 355.578 158.104 355.97 157.96 356.421C157.816 356.871 157.817 357.357 157.961 357.807L159.69 363.227C159.906 363.88 159.91 364.587 159.701 365.242C159.492 365.897 159.081 366.467 158.529 366.865C157.985 367.274 157.327 367.496 156.651 367.499Z" fill="white"/>
<path d="M202.523 367.499C201.847 367.496 201.189 367.274 200.644 366.865L196.118 363.516C195.742 363.236 195.289 363.086 194.824 363.086C194.359 363.086 193.906 363.236 193.53 363.516L189.004 366.865C188.458 367.269 187.8 367.487 187.125 367.487C186.45 367.487 185.793 367.27 185.247 366.866C184.701 366.462 184.295 365.892 184.086 365.238C183.877 364.585 183.877 363.881 184.086 363.227L185.815 357.807C185.96 357.357 185.96 356.871 185.816 356.421C185.673 355.97 185.392 355.578 185.015 355.3L180.489 351.95C179.943 351.546 179.536 350.976 179.328 350.323C179.119 349.669 179.12 348.965 179.328 348.311C179.537 347.657 179.943 347.088 180.489 346.684C181.035 346.28 181.692 346.062 182.367 346.062H187.962C188.427 346.063 188.881 345.913 189.257 345.635C189.633 345.357 189.913 344.964 190.056 344.513L191.785 339.093C191.993 338.439 192.4 337.87 192.946 337.465C193.492 337.061 194.149 336.844 194.824 336.844C195.499 336.844 196.157 337.061 196.702 337.465C197.248 337.87 197.655 338.439 197.863 339.093L199.592 344.513C199.735 344.964 200.015 345.357 200.391 345.635C200.767 345.913 201.221 346.063 201.686 346.062H207.281C207.956 346.062 208.613 346.28 209.159 346.684C209.705 347.088 210.112 347.657 210.32 348.311C210.529 348.965 210.529 349.669 210.32 350.323C210.112 350.976 209.705 351.546 209.159 351.95L204.633 355.3C204.256 355.578 203.975 355.97 203.832 356.421C203.688 356.871 203.688 357.357 203.833 357.807L205.562 363.227C205.778 363.88 205.782 364.587 205.573 365.242C205.364 365.897 204.953 366.467 204.401 366.865C203.857 367.274 203.199 367.496 202.523 367.499Z" fill="white"/>
<path d="M248.395 367.499C247.718 367.496 247.061 367.274 246.516 366.865L241.99 363.516C241.614 363.237 241.161 363.087 240.696 363.087C240.231 363.087 239.778 363.237 239.402 363.516L234.875 366.865C234.329 367.27 233.672 367.487 232.997 367.487C232.322 367.487 231.665 367.27 231.119 366.866C230.573 366.462 230.166 365.892 229.958 365.238C229.749 364.585 229.749 363.881 229.958 363.227L231.687 357.807C231.831 357.357 231.832 356.871 231.688 356.421C231.544 355.97 231.264 355.578 230.887 355.3L226.36 351.95C225.815 351.546 225.408 350.976 225.2 350.323C224.991 349.669 224.991 348.965 225.2 348.311C225.408 347.657 225.815 347.088 226.361 346.684C226.907 346.28 227.564 346.062 228.239 346.062H233.834C234.299 346.063 234.752 345.913 235.129 345.635C235.505 345.357 235.785 344.964 235.927 344.513L237.657 339.093C237.865 338.439 238.271 337.87 238.817 337.465C239.363 337.061 240.021 336.844 240.696 336.844C241.371 336.844 242.028 337.061 242.574 337.465C243.12 337.87 243.527 338.439 243.735 339.093L245.464 344.513C245.607 344.964 245.887 345.357 246.263 345.635C246.639 345.913 247.092 346.063 247.557 346.062H253.153C253.828 346.062 254.485 346.28 255.031 346.684C255.577 347.088 255.983 347.657 256.192 348.311C256.4 348.965 256.4 349.669 256.192 350.323C255.983 350.976 255.577 351.546 255.031 351.95L250.504 355.3C250.128 355.578 249.847 355.97 249.704 356.421C249.56 356.871 249.56 357.357 249.705 357.807L251.434 363.227C251.65 363.88 251.654 364.586 251.445 365.242C251.236 365.897 250.825 366.467 250.273 366.865C249.729 367.274 249.071 367.496 248.395 367.499Z" fill="white"/>
<path d="M294.267 367.499C293.59 367.496 292.932 367.274 292.388 366.865L287.861 363.516C287.486 363.236 287.033 363.086 286.568 363.086C286.103 363.086 285.65 363.236 285.274 363.516L280.747 366.865C280.201 367.269 279.544 367.487 278.869 367.487C278.194 367.487 277.537 367.27 276.991 366.866C276.445 366.462 276.038 365.892 275.83 365.238C275.621 364.585 275.621 363.881 275.83 363.227L277.559 357.807C277.703 357.357 277.704 356.871 277.56 356.421C277.416 355.97 277.136 355.578 276.759 355.3L272.232 351.95C271.686 351.546 271.28 350.976 271.071 350.323C270.863 349.669 270.863 348.965 271.071 348.311C271.28 347.657 271.686 347.088 272.232 346.684C272.778 346.28 273.436 346.062 274.111 346.062H279.706C280.171 346.063 280.624 345.913 281 345.635C281.377 345.357 281.656 344.964 281.799 344.513L283.528 339.093C283.737 338.439 284.143 337.87 284.689 337.465C285.235 337.061 285.893 336.844 286.567 336.844C287.242 336.844 287.9 337.061 288.446 337.465C288.992 337.87 289.398 338.439 289.607 339.093L291.336 344.513C291.479 344.964 291.758 345.357 292.135 345.635C292.511 345.913 292.964 346.063 293.429 346.062H299.024C299.699 346.062 300.357 346.28 300.903 346.684C301.449 347.088 301.855 347.657 302.064 348.311C302.272 348.965 302.272 349.669 302.064 350.323C301.855 350.976 301.449 351.546 300.903 351.95L296.376 355.3C295.999 355.578 295.719 355.97 295.575 356.421C295.432 356.871 295.432 357.357 295.577 357.807L297.306 363.227C297.522 363.88 297.526 364.586 297.317 365.242C297.107 365.897 296.697 366.467 296.145 366.865C295.601 367.274 294.943 367.496 294.267 367.499Z" fill="white"/>
<path d="M324.741 367.82C323.998 367.817 323.276 367.574 322.678 367.125C322.072 366.687 321.62 366.061 321.39 365.341C321.161 364.621 321.165 363.845 321.402 363.127L323.132 357.707C323.255 357.322 323.256 356.906 323.132 356.52C323.009 356.134 322.769 355.797 322.446 355.559L317.919 352.209C317.32 351.765 316.873 351.14 316.644 350.422C316.415 349.703 316.415 348.93 316.644 348.212C316.873 347.494 317.32 346.868 317.919 346.424C318.519 345.981 319.241 345.741 319.983 345.742H325.578C325.976 345.742 326.365 345.614 326.687 345.375C327.01 345.137 327.25 344.8 327.372 344.414L329.101 338.994C329.33 338.276 329.777 337.65 330.376 337.206C330.976 336.762 331.698 336.523 332.44 336.523C333.181 336.523 333.903 336.762 334.503 337.206C335.103 337.65 335.549 338.276 335.778 338.994L337.507 344.414C337.629 344.8 337.869 345.137 338.192 345.375C338.514 345.614 338.903 345.742 339.301 345.742H344.897C345.638 345.742 346.36 345.981 346.96 346.424C347.559 346.868 348.006 347.494 348.235 348.212C348.464 348.93 348.464 349.703 348.235 350.422C348.006 351.14 347.559 351.765 346.96 352.209L342.433 355.559C342.11 355.797 341.87 356.133 341.746 356.519C341.623 356.906 341.624 357.322 341.748 357.707L343.477 363.127C343.706 363.845 343.706 364.619 343.477 365.337C343.247 366.055 342.801 366.681 342.201 367.125C341.602 367.568 340.879 367.807 340.138 367.807C339.397 367.807 338.675 367.568 338.075 367.125L333.548 363.775C333.226 363.536 332.838 363.407 332.439 363.407C332.041 363.407 331.653 363.536 331.331 363.775L326.804 367.125C326.206 367.574 325.483 367.817 324.741 367.82ZM332.44 361.752C333.181 361.752 333.903 361.992 334.502 362.437L339.029 365.787C339.351 366.025 339.74 366.154 340.138 366.154C340.537 366.154 340.925 366.026 341.247 365.787C341.569 365.548 341.809 365.212 341.933 364.826C342.056 364.44 342.056 364.024 341.932 363.638L340.203 358.219C339.973 357.501 339.972 356.727 340.201 356.008C340.431 355.29 340.878 354.664 341.479 354.221L346.005 350.871C346.328 350.633 346.567 350.296 346.691 349.91C346.814 349.525 346.814 349.109 346.691 348.723C346.567 348.337 346.328 348.001 346.005 347.762C345.683 347.524 345.295 347.395 344.896 347.395H339.301C338.559 347.397 337.837 347.158 337.237 346.714C336.637 346.27 336.191 345.644 335.963 344.925L334.234 339.505C334.111 339.119 333.871 338.783 333.548 338.544C333.226 338.306 332.838 338.177 332.439 338.177C332.041 338.177 331.653 338.306 331.33 338.544C331.008 338.783 330.768 339.119 330.645 339.505L328.916 344.925C328.688 345.644 328.242 346.27 327.642 346.714C327.042 347.158 326.319 347.397 325.578 347.395H319.983C319.584 347.395 319.196 347.524 318.874 347.762C318.551 348.001 318.311 348.337 318.188 348.723C318.065 349.109 318.065 349.525 318.188 349.91C318.311 350.296 318.551 350.633 318.873 350.871L323.4 354.221C324.001 354.664 324.448 355.29 324.677 356.008C324.907 356.727 324.906 357.501 324.676 358.219L322.946 363.638C322.823 364.024 322.823 364.44 322.946 364.826C323.069 365.212 323.309 365.548 323.632 365.787C323.954 366.025 324.342 366.154 324.74 366.154C325.139 366.154 325.527 366.025 325.849 365.787L330.376 362.437C330.976 361.992 331.698 361.752 332.44 361.752Z" fill="white"/>
<path d="M44.6473 231.508C43.2479 231.508 41.9058 232.075 40.9162 233.082C39.9267 234.09 39.3708 235.457 39.3708 236.883C39.3708 238.308 39.9267 239.675 40.9162 240.683C41.9058 241.691 43.2479 242.257 44.6473 242.257H311.719C313.119 242.257 314.461 241.691 315.45 240.683C316.44 239.675 316.996 238.308 316.996 236.883C316.996 235.457 316.44 234.09 315.45 233.082C314.461 232.075 313.119 231.508 311.719 231.508H44.6473Z" fill="#CCCCCC"/>
<path d="M44.6473 259.62C43.2479 259.62 41.9058 260.186 40.9162 261.194C39.9267 262.202 39.3708 263.569 39.3708 264.994C39.3708 266.42 39.9267 267.787 40.9162 268.795C41.9058 269.802 43.2479 270.369 44.6473 270.369H311.719C313.119 270.369 314.461 269.802 315.45 268.795C316.44 267.787 316.996 266.42 316.996 264.994C316.996 263.569 316.44 262.202 315.45 261.194C314.461 260.186 313.119 259.62 311.719 259.62H44.6473Z" fill="#CCCCCC"/>
<path d="M44.6473 287.732C43.2479 287.732 41.9058 288.298 40.9162 289.306C39.9267 290.314 39.3708 291.681 39.3708 293.106C39.3708 294.532 39.9267 295.899 40.9162 296.906C41.9058 297.914 43.2479 298.481 44.6473 298.481H311.719C313.119 298.481 314.461 297.914 315.45 296.906C316.44 295.899 316.996 294.532 316.996 293.106C316.996 291.681 316.44 290.314 315.45 289.306C314.461 288.298 313.119 287.732 311.719 287.732H44.6473Z" fill="#CCCCCC"/>
<path d="M44.6473 231.508C43.2479 231.508 41.9058 232.075 40.9162 233.082C39.9267 234.09 39.3708 235.457 39.3708 236.883C39.3708 238.308 39.9267 239.675 40.9162 240.683C41.9058 241.691 43.2479 242.257 44.6473 242.257H311.719C313.119 242.257 314.461 241.691 315.45 240.683C316.44 239.675 316.996 238.308 316.996 236.883C316.996 235.457 316.44 234.09 315.45 233.082C314.461 232.075 313.119 231.508 311.719 231.508H44.6473Z" fill="#CCCCCC"/>
<path d="M44.6473 259.62C43.2479 259.62 41.9058 260.186 40.9162 261.194C39.9267 262.202 39.3708 263.569 39.3708 264.994C39.3708 266.42 39.9267 267.787 40.9162 268.795C41.9058 269.802 43.2479 270.369 44.6473 270.369H311.719C313.119 270.369 314.461 269.802 315.45 268.795C316.44 267.787 316.996 266.42 316.996 264.994C316.996 263.569 316.44 262.202 315.45 261.194C314.461 260.186 313.119 259.62 311.719 259.62H44.6473Z" fill="#CCCCCC"/>
<path d="M44.6473 287.732C43.2479 287.732 41.9058 288.298 40.9162 289.306C39.9267 290.314 39.3708 291.681 39.3708 293.106C39.3708 294.532 39.9267 295.899 40.9162 296.906C41.9058 297.914 43.2479 298.481 44.6473 298.481H311.719C313.119 298.481 314.461 297.914 315.45 296.906C316.44 295.899 316.996 294.532 316.996 293.106C316.996 291.681 316.44 290.314 315.45 289.306C314.461 288.298 313.119 287.732 311.719 287.732H44.6473Z" fill="#CCCCCC"/>
<path d="M350.684 116.581H5.68238C4.17584 116.579 2.73148 115.969 1.6662 114.884C0.60091 113.799 0.00169093 112.328 0 110.793V5.78771C0.00169093 4.25324 0.60091 2.78211 1.6662 1.69708C2.73148 0.612049 4.17584 0.00172228 5.68238 0H350.684C352.191 0.00172009 353.635 0.612048 354.7 1.69708C355.766 2.78211 356.365 4.25324 356.366 5.78771V110.793C356.365 112.328 355.766 113.799 354.7 114.884C353.635 115.969 352.191 116.579 350.684 116.581ZM5.68238 1.65363C4.60629 1.6549 3.57464 2.09086 2.81373 2.86587C2.05282 3.64089 1.62478 4.69167 1.62354 5.78771V110.793C1.62478 111.889 2.05282 112.94 2.81373 113.715C3.57464 114.49 4.60629 114.926 5.68238 114.927H350.684C351.76 114.926 352.792 114.49 353.553 113.715C354.314 112.94 354.742 111.889 354.743 110.793V5.78771C354.742 4.69167 354.314 3.64088 353.553 2.86586C352.792 2.09084 351.76 1.65488 350.684 1.65363H5.68238Z" fill="white"/>
<path d="M156.651 160.795C155.975 160.792 155.317 160.57 154.773 160.161L150.246 156.812C149.87 156.532 149.417 156.382 148.952 156.382C148.487 156.382 148.034 156.532 147.659 156.812L143.132 160.161C142.586 160.565 141.928 160.783 141.254 160.783C140.579 160.783 139.921 160.565 139.375 160.162C138.829 159.758 138.423 159.188 138.214 158.534C138.006 157.881 138.006 157.176 138.214 156.523L139.943 151.103C140.088 150.652 140.088 150.167 139.945 149.717C139.801 149.266 139.52 148.874 139.144 148.596L134.617 145.246C134.071 144.842 133.665 144.272 133.456 143.619C133.248 142.965 133.248 142.261 133.456 141.607C133.665 140.953 134.071 140.384 134.617 139.98C135.163 139.576 135.82 139.358 136.495 139.358H142.091C142.556 139.359 143.009 139.209 143.385 138.931C143.761 138.653 144.041 138.26 144.184 137.809L145.913 132.389C146.121 131.735 146.528 131.165 147.074 130.761C147.62 130.357 148.277 130.14 148.952 130.14C149.627 130.14 150.285 130.357 150.831 130.761C151.377 131.165 151.783 131.735 151.992 132.389L153.72 137.809C153.863 138.26 154.143 138.653 154.519 138.931C154.895 139.209 155.349 139.359 155.814 139.358H161.409C162.084 139.358 162.742 139.576 163.287 139.98C163.833 140.384 164.24 140.953 164.448 141.607C164.657 142.261 164.657 142.965 164.448 143.619C164.24 144.272 163.833 144.842 163.287 145.246L158.761 148.596C158.384 148.874 158.104 149.266 157.96 149.717C157.816 150.167 157.817 150.652 157.961 151.103L159.69 156.523C159.906 157.176 159.91 157.882 159.701 158.538C159.492 159.193 159.081 159.763 158.529 160.161C157.985 160.57 157.327 160.792 156.651 160.795Z" fill="white"/>
<path d="M202.523 160.795C201.847 160.792 201.189 160.57 200.644 160.161L196.118 156.812C195.742 156.532 195.289 156.382 194.824 156.382C194.359 156.382 193.906 156.532 193.53 156.812L189.004 160.161C188.458 160.565 187.8 160.783 187.125 160.783C186.45 160.783 185.793 160.565 185.247 160.162C184.701 159.758 184.295 159.188 184.086 158.534C183.877 157.881 183.877 157.176 184.086 156.523L185.815 151.103C185.96 150.652 185.96 150.167 185.816 149.717C185.673 149.266 185.392 148.874 185.015 148.596L180.489 145.246C179.943 144.842 179.536 144.272 179.328 143.619C179.119 142.965 179.12 142.261 179.328 141.607C179.537 140.953 179.943 140.384 180.489 139.98C181.035 139.576 181.692 139.358 182.367 139.358H187.962C188.427 139.359 188.881 139.209 189.257 138.931C189.633 138.653 189.913 138.26 190.056 137.809L191.785 132.389C191.993 131.735 192.4 131.165 192.946 130.761C193.492 130.357 194.149 130.14 194.824 130.14C195.499 130.14 196.157 130.357 196.702 130.761C197.248 131.165 197.655 131.735 197.863 132.389L199.592 137.809C199.735 138.26 200.015 138.653 200.391 138.931C200.767 139.209 201.221 139.359 201.686 139.358H207.281C207.956 139.358 208.613 139.576 209.159 139.98C209.705 140.384 210.112 140.953 210.32 141.607C210.529 142.261 210.529 142.965 210.32 143.619C210.112 144.272 209.705 144.842 209.159 145.246L204.633 148.596C204.256 148.873 203.975 149.266 203.832 149.716C203.688 150.167 203.688 150.652 203.833 151.103L205.562 156.523C205.778 157.176 205.782 157.882 205.573 158.538C205.364 159.193 204.953 159.763 204.401 160.161C203.857 160.57 203.199 160.792 202.523 160.795Z" fill="white"/>
<path d="M248.395 160.795C247.718 160.792 247.061 160.57 246.516 160.161L241.99 156.812C241.614 156.533 241.161 156.383 240.696 156.383C240.231 156.383 239.778 156.533 239.402 156.812L234.875 160.161C234.329 160.565 233.672 160.783 232.997 160.783C232.322 160.783 231.665 160.565 231.119 160.162C230.573 159.758 230.166 159.188 229.958 158.534C229.749 157.881 229.749 157.176 229.958 156.523L231.687 151.103C231.831 150.652 231.832 150.167 231.688 149.717C231.544 149.266 231.264 148.874 230.887 148.596L226.36 145.246C225.815 144.842 225.408 144.272 225.2 143.619C224.991 142.965 224.991 142.261 225.2 141.607C225.408 140.953 225.815 140.384 226.361 139.98C226.907 139.576 227.564 139.358 228.239 139.358H233.834C234.299 139.359 234.752 139.209 235.129 138.931C235.505 138.653 235.785 138.26 235.927 137.809L237.657 132.389C237.865 131.735 238.271 131.165 238.817 130.761C239.363 130.357 240.021 130.14 240.696 130.14C241.371 130.14 242.028 130.357 242.574 130.761C243.12 131.165 243.527 131.735 243.735 132.389L245.464 137.809C245.607 138.26 245.887 138.653 246.263 138.931C246.639 139.209 247.092 139.359 247.557 139.358H253.153C253.828 139.358 254.485 139.576 255.031 139.98C255.577 140.384 255.983 140.953 256.192 141.607C256.4 142.261 256.4 142.965 256.192 143.619C255.983 144.272 255.577 144.842 255.031 145.246L250.504 148.596C250.128 148.874 249.847 149.266 249.704 149.717C249.56 150.167 249.56 150.652 249.705 151.103L251.434 156.523C251.65 157.176 251.654 157.882 251.445 158.538C251.236 159.193 250.825 159.762 250.273 160.161C249.729 160.57 249.071 160.792 248.395 160.795Z" fill="white"/>
<path d="M324.741 161.117C323.998 161.114 323.276 160.87 322.678 160.421C322.072 159.983 321.62 159.358 321.39 158.638C321.161 157.917 321.165 157.141 321.402 156.424L323.132 151.004C323.255 150.618 323.256 150.202 323.132 149.816C323.009 149.43 322.769 149.094 322.446 148.856L317.919 145.506C317.32 145.062 316.873 144.436 316.644 143.718C316.415 143 316.415 142.226 316.644 141.508C316.873 140.79 317.32 140.164 317.919 139.721C318.519 139.277 319.241 139.038 319.983 139.038H325.578C325.977 139.039 326.365 138.911 326.687 138.672C327.01 138.433 327.25 138.096 327.372 137.71L329.101 132.29C329.33 131.572 329.777 130.946 330.376 130.503C330.976 130.059 331.698 129.82 332.44 129.82C333.181 129.82 333.903 130.059 334.503 130.503C335.103 130.946 335.549 131.572 335.778 132.29L337.507 137.71C337.629 138.096 337.869 138.433 338.192 138.672C338.514 138.911 338.903 139.039 339.301 139.038H344.897C345.638 139.038 346.36 139.277 346.96 139.721C347.559 140.165 348.006 140.79 348.235 141.508C348.464 142.226 348.464 143 348.235 143.718C348.006 144.436 347.559 145.062 346.96 145.506L342.433 148.856C342.11 149.094 341.87 149.43 341.746 149.816C341.623 150.202 341.624 150.618 341.748 151.004L343.477 156.424C343.706 157.142 343.706 157.915 343.477 158.633C343.247 159.351 342.801 159.977 342.201 160.421C341.602 160.865 340.879 161.104 340.138 161.104C339.397 161.104 338.675 160.865 338.075 160.421L333.548 157.071C333.226 156.832 332.838 156.703 332.439 156.703C332.041 156.703 331.653 156.832 331.331 157.071L326.804 160.421C326.206 160.87 325.483 161.114 324.741 161.117ZM332.44 155.049C333.181 155.049 333.903 155.289 334.502 155.733L339.029 159.083C339.351 159.322 339.74 159.45 340.138 159.45C340.537 159.45 340.925 159.322 341.247 159.083C341.569 158.845 341.809 158.509 341.933 158.123C342.056 157.737 342.056 157.321 341.932 156.935L340.203 151.515C339.973 150.797 339.972 150.023 340.201 149.305C340.431 148.586 340.878 147.961 341.479 147.518L346.005 144.168C346.328 143.929 346.567 143.593 346.691 143.207C346.814 142.821 346.814 142.405 346.691 142.019C346.567 141.633 346.328 141.297 346.005 141.059C345.683 140.82 345.295 140.692 344.896 140.692H339.301C338.559 140.693 337.837 140.455 337.237 140.011C336.637 139.567 336.191 138.94 335.963 138.221L334.234 132.801C334.111 132.415 333.871 132.079 333.548 131.84C333.226 131.602 332.838 131.473 332.439 131.473C332.041 131.473 331.653 131.602 331.33 131.84C331.008 132.079 330.768 132.415 330.645 132.801L328.916 138.221C328.688 138.94 328.242 139.567 327.642 140.011C327.042 140.455 326.319 140.693 325.578 140.692H319.983C319.584 140.692 319.196 140.82 318.874 141.059C318.551 141.297 318.311 141.633 318.188 142.019C318.065 142.405 318.065 142.821 318.188 143.207C318.311 143.593 318.551 143.929 318.873 144.168L323.4 147.518C324.001 147.961 324.448 148.586 324.677 149.305C324.907 150.023 324.906 150.797 324.676 151.515L322.946 156.935C322.823 157.321 322.823 157.736 322.946 158.122C323.069 158.508 323.309 158.845 323.632 159.083C323.954 159.322 324.342 159.45 324.74 159.45C325.139 159.45 325.527 159.322 325.849 159.083L330.376 155.733C330.976 155.289 331.698 155.049 332.44 155.049Z" fill="white"/>
<path d="M278.47 160.984C277.727 160.981 277.005 160.737 276.407 160.288C275.801 159.85 275.349 159.225 275.12 158.505C274.89 157.785 274.894 157.008 275.131 156.291L276.861 150.871C276.985 150.485 276.985 150.069 276.862 149.683C276.739 149.297 276.498 148.961 276.175 148.723L271.648 145.373C271.049 144.929 270.602 144.303 270.373 143.585C270.144 142.867 270.144 142.094 270.373 141.375C270.602 140.657 271.049 140.032 271.648 139.588C272.248 139.144 272.97 138.905 273.712 138.905H279.307C279.706 138.906 280.094 138.778 280.417 138.539C280.739 138.3 280.979 137.964 281.101 137.577L282.83 132.157C283.06 131.439 283.506 130.814 284.106 130.37C284.705 129.926 285.428 129.687 286.169 129.687C286.91 129.687 287.632 129.926 288.232 130.37C288.832 130.814 289.278 131.439 289.507 132.157L291.236 137.577C291.359 137.964 291.598 138.3 291.921 138.539C292.243 138.778 292.632 138.906 293.03 138.905H298.626C299.367 138.905 300.089 139.144 300.689 139.588C301.289 140.032 301.735 140.658 301.964 141.376C302.193 142.094 302.193 142.867 301.964 143.585C301.735 144.303 301.289 144.929 300.689 145.373L296.162 148.723C295.839 148.961 295.599 149.297 295.476 149.683C295.352 150.069 295.353 150.485 295.477 150.871L297.206 156.291C297.435 157.009 297.435 157.782 297.206 158.5C296.977 159.219 296.53 159.844 295.931 160.288C295.331 160.732 294.609 160.971 293.867 160.971C293.126 160.971 292.404 160.732 291.804 160.288L287.278 156.938C286.956 156.699 286.567 156.57 286.169 156.57C285.77 156.57 285.382 156.699 285.06 156.938L280.533 160.288C279.935 160.737 279.213 160.981 278.47 160.984ZM286.169 154.916C286.91 154.916 287.632 155.156 288.232 155.601L292.758 158.95C293.081 159.189 293.469 159.317 293.867 159.317C294.266 159.317 294.654 159.189 294.976 158.951C295.299 158.712 295.539 158.376 295.662 157.99C295.785 157.604 295.785 157.188 295.662 156.802L293.933 151.382C293.702 150.664 293.701 149.89 293.931 149.172C294.16 148.453 294.607 147.828 295.208 147.385L299.735 144.035C300.057 143.796 300.297 143.46 300.42 143.074C300.543 142.688 300.543 142.272 300.42 141.887C300.297 141.501 300.057 141.164 299.734 140.926C299.412 140.687 299.024 140.559 298.626 140.559H293.03C292.289 140.56 291.566 140.322 290.966 139.878C290.366 139.434 289.92 138.807 289.692 138.088L287.963 132.668C287.84 132.283 287.6 131.946 287.278 131.708C286.955 131.469 286.567 131.341 286.169 131.341C285.77 131.341 285.382 131.469 285.06 131.708C284.737 131.946 284.497 132.283 284.374 132.668L282.645 138.088C282.417 138.807 281.971 139.434 281.371 139.878C280.772 140.322 280.049 140.56 279.307 140.559H273.712C273.313 140.559 272.925 140.687 272.603 140.926C272.281 141.164 272.041 141.501 271.917 141.886C271.794 142.272 271.794 142.688 271.917 143.074C272.041 143.46 272.28 143.796 272.603 144.035L277.13 147.385C277.73 147.828 278.178 148.453 278.407 149.172C278.636 149.89 278.635 150.664 278.405 151.382L276.675 156.802C276.552 157.188 276.552 157.604 276.675 157.99C276.799 158.375 277.039 158.712 277.361 158.95C277.683 159.189 278.071 159.317 278.47 159.317C278.868 159.317 279.256 159.189 279.579 158.95L284.106 155.601C284.705 155.156 285.427 154.916 286.169 154.916Z" fill="white"/>
<path d="M44.6473 24.8047C43.2479 24.8047 41.9058 25.3709 40.9162 26.3788C39.9267 27.3867 39.3708 28.7536 39.3708 30.179C39.3708 31.6043 39.9267 32.9713 40.9162 33.9792C41.9058 34.9871 43.2479 35.5533 44.6473 35.5533H311.719C313.119 35.5533 314.461 34.9871 315.45 33.9792C316.44 32.9713 316.996 31.6043 316.996 30.179C316.996 28.7536 316.44 27.3867 315.45 26.3788C314.461 25.3709 313.119 24.8047 311.719 24.8047H44.6473Z" fill="#CCCCCC"/>
<path d="M44.6473 52.916C43.2479 52.916 41.9058 53.4822 40.9162 54.4901C39.9267 55.498 39.3708 56.865 39.3708 58.2903C39.3708 59.7157 39.9267 61.0826 40.9162 62.0905C41.9058 63.0984 43.2479 63.6646 44.6473 63.6646H311.719C313.119 63.6646 314.461 63.0984 315.45 62.0905C316.44 61.0826 316.996 59.7157 316.996 58.2903C316.996 56.865 316.44 55.498 315.45 54.4901C314.461 53.4822 313.119 52.916 311.719 52.916H44.6473Z" fill="#CCCCCC"/>
<path d="M44.6473 81.0278C43.2479 81.0278 41.9058 81.5941 40.9162 82.6019C39.9267 83.6098 39.3708 84.9768 39.3708 86.4021C39.3708 87.8275 39.9267 89.1945 40.9162 90.2023C41.9058 91.2102 43.2479 91.7764 44.6473 91.7764H311.719C313.119 91.7764 314.461 91.2102 315.45 90.2023C316.44 89.1945 316.996 87.8275 316.996 86.4021C316.996 84.9768 316.44 83.6098 315.45 82.6019C314.461 81.5941 313.119 81.0278 311.719 81.0278H44.6473Z" fill="#CCCCCC"/>
<path d="M44.6473 24.8047C43.2479 24.8047 41.9058 25.3709 40.9162 26.3788C39.9267 27.3867 39.3708 28.7536 39.3708 30.179C39.3708 31.6043 39.9267 32.9713 40.9162 33.9792C41.9058 34.9871 43.2479 35.5533 44.6473 35.5533H311.719C313.119 35.5533 314.461 34.9871 315.45 33.9792C316.44 32.9713 316.996 31.6043 316.996 30.179C316.996 28.7536 316.44 27.3867 315.45 26.3788C314.461 25.3709 313.119 24.8047 311.719 24.8047H44.6473Z" fill="#CCCCCC"/>
<path d="M44.6473 52.916C43.2479 52.916 41.9058 53.4822 40.9162 54.4901C39.9267 55.498 39.3708 56.865 39.3708 58.2903C39.3708 59.7157 39.9267 61.0826 40.9162 62.0905C41.9058 63.0984 43.2479 63.6646 44.6473 63.6646H311.719C313.119 63.6646 314.461 63.0984 315.45 62.0905C316.44 61.0826 316.996 59.7157 316.996 58.2903C316.996 56.865 316.44 55.498 315.45 54.4901C314.461 53.4822 313.119 52.916 311.719 52.916H44.6473Z" fill="#CCCCCC"/>
<path d="M44.6473 81.0278C43.2479 81.0278 41.9058 81.5941 40.9162 82.6019C39.9267 83.6098 39.3708 84.9768 39.3708 86.4021C39.3708 87.8275 39.9267 89.1945 40.9162 90.2023C41.9058 91.2102 43.2479 91.7764 44.6473 91.7764H311.719C313.119 91.7764 314.461 91.2102 315.45 90.2023C316.44 89.1945 316.996 87.8275 316.996 86.4021C316.996 84.9768 316.44 83.6098 315.45 82.6019C314.461 81.5941 313.119 81.0278 311.719 81.0278H44.6473Z" fill="#CCCCCC"/>
</g>
<defs>
<clipPath id="clip0">
<rect width="651" height="444" fill="white"/>
</clipPath>
</defs>
</svg>
